<svg width="30" height="30" viewBox="0 0 30 30" fill="none" xmlns="http://www.w3.org/2000/svg">
<path fill-rule="evenodd" clip-rule="evenodd" d="M2.5636 2.56348H21.0171V4.75246H4.75259V23.486L6.89025 25.8606H23.9844V28.0495H5.91553L2.5636 24.3262V2.56348Z" fill="#ffffff"/>
<path fill-rule="evenodd" clip-rule="evenodd" d="M20.0755 3.65797H22.2645V6.55056H27.1115V24.2067L24.8283 28.0495H22.3587L20.0755 24.2067V3.65797ZM22.2645 8.73955V23.6055L23.5935 25.8424L24.9225 23.6055V8.73955H22.2645Z" fill="#ffffff"/>
<path d="M12.6063 18.2635C11.7469 18.2635 10.9762 18.1271 10.2942 17.8543C9.6122 17.5747 9.03248 17.1894 8.55507 16.6983C8.08447 16.2072 7.723 15.6378 7.47065 14.9898C7.2183 14.3351 7.09213 13.6394 7.09213 12.9028V12.4936C7.09213 11.6547 7.21148 10.8875 7.45019 10.1918C7.6889 9.49614 8.02991 8.89255 8.47322 8.38103C8.92336 7.86951 9.46898 7.47735 10.1101 7.20454C10.7512 6.92491 11.4741 6.7851 12.2789 6.7851C13.0632 6.7851 13.7589 6.91468 14.3659 7.17385C14.9729 7.43302 15.481 7.80131 15.8902 8.27873C16.3063 8.75614 16.62 9.32904 16.8314 9.99742C17.0428 10.659 17.1486 11.3956 17.1486 12.2072V13.4348H8.35046V11.4706H14.2534V11.2455C14.2534 10.8363 14.1783 10.4714 14.0283 10.1509C13.8851 9.82351 13.6668 9.56434 13.3736 9.37337C13.0803 9.18241 12.7052 9.08692 12.2482 9.08692C11.8595 9.08692 11.5253 9.17218 11.2456 9.34268C10.966 9.51319 10.7375 9.75189 10.5602 10.0588C10.3897 10.3657 10.2601 10.7272 10.1715 11.1432C10.0896 11.5524 10.0487 12.0026 10.0487 12.4936V12.9028C10.0487 13.3462 10.1101 13.7554 10.2328 14.1305C10.3624 14.5056 10.5432 14.8296 10.7751 15.1024C11.0138 15.3752 11.3002 15.5866 11.6344 15.7366C11.9754 15.8867 12.3608 15.9617 12.7904 15.9617C13.3224 15.9617 13.8169 15.8594 14.2738 15.6548C14.7376 15.4434 15.1366 15.1262 15.4708 14.7034L16.903 16.2584C16.6711 16.5926 16.354 16.9131 15.9516 17.22C15.556 17.527 15.0786 17.7793 14.5194 17.9771C13.9601 18.1681 13.3224 18.2635 12.6063 18.2635Z" fill="#ffffff"/>
<path d="M7.09793 20.3881H17.4174V21.7953H7.09793V20.3881Z" fill="#ffffff"/>
<path d="M7.09793 22.8898H17.4174V24.297H7.09793V22.8898Z" fill="#ffffff"/>
</svg>
