<svg width="21" height="21" viewBox="0 0 21 21" fill="none" xmlns="http://www.w3.org/2000/svg">
<g clip-path="url(#clip0_162_18024)">
<rect width="20.9786" height="20.9786" fill="#043E73"/>
<path d="M6.70768 20.9998L2.77686 13.5441L3.80229 13.2877L3.84502 9.5278L2.69141 7.58375V7.43421H3.7382L4.44319 7.58375L7.34858 11.9632L9.31399 7.56239L12.0485 7.37012L14.0566 10.5532V9.72007L12.6894 7.58375L12.7107 7.43421L16.3425 7.56239L18.137 8.28873L20.9783 13.0741V20.9998H6.70768Z" fill="#183059"/>
<path d="M2.68945 7.57912V7.34863H4.08806H5.51143L7.3987 11.4331L9.2493 7.34863H12.0465V7.57912H11.4772C11.2448 7.57912 11.0564 7.7984 11.0564 8.0689V13.0244C11.0564 13.1994 11.1783 13.3413 11.3287 13.3413H12.0218V13.6294H8.44479V13.3413H9.17504C9.32543 13.3413 9.44734 13.1994 9.44734 13.0244V7.94432L6.83577 13.6294H6.65012L4.08806 8.11416V12.7363C4.08806 13.0704 4.3208 13.3413 4.6079 13.3413H5.09061V13.6294H2.71421V13.3413H3.15978C3.44688 13.3413 3.67962 13.0704 3.67962 12.7363V8.0689C3.67962 7.7984 3.49121 7.57912 3.2588 7.57912H2.68945Z" fill="white"/>
<path fill-rule="evenodd" clip-rule="evenodd" d="M16.5049 7.34896V7.34863H12.6875V7.57912H13.2047C13.4495 7.57912 13.648 7.8113 13.648 8.09772V13.0244C13.648 13.1994 13.5267 13.3413 13.3771 13.3413H12.6875V13.6294H16.1355V13.3413H15.5198C15.3701 13.3413 15.2488 13.1994 15.2488 13.0244V10.7195H16.5049V10.7192C17.5148 10.7013 18.3274 9.95372 18.3274 9.03407C18.3274 8.11442 17.5148 7.3668 16.5049 7.34896ZM15.6922 10.4314H15.2735V7.75199H15.6922C16.2498 7.75199 16.7019 8.28085 16.7019 8.93323V9.25015C16.7019 9.90254 16.2498 10.4314 15.6922 10.4314Z" fill="white"/>
</g>
<defs>
<clipPath id="clip0_162_18024">
<rect width="20.9797" height="21" rx="2.73449" fill="white"/>
</clipPath>
</defs>
</svg>
