<svg width="20" height="20" viewBox="0 0 20 20" fill="none" xmlns="http://www.w3.org/2000/svg">
<g clip-path="url(#clip0_162_18089)">
<path d="M17.4993 2.5C17.7204 2.5 17.9323 2.5878 18.0886 2.74408C18.2449 2.90036 18.3327 3.11232 18.3327 3.33333V16.6667C18.3327 16.8877 18.2449 17.0996 18.0886 17.2559C17.9323 17.4122 17.7204 17.5 17.4993 17.5H2.49935C2.27834 17.5 2.06637 17.4122 1.91009 17.2559C1.75381 17.0996 1.66602 16.8877 1.66602 16.6667V3.33333C1.66602 3.11232 1.75381 2.90036 1.91009 2.74408C2.06637 2.5878 2.27834 2.5 2.49935 2.5H17.4993ZM16.666 4.16667H3.33268V15.8333H16.666V4.16667ZM7.83185 6.66667L10.4977 13.3333H8.70185L8.36852 12.5H5.62685L5.29352 13.3333H3.49852L6.16518 6.66667H7.83185ZM15.8327 6.66667V13.3333H13.3327C12.6696 13.3333 12.0338 13.0699 11.5649 12.6011C11.0961 12.1323 10.8327 11.4964 10.8327 10.8333C10.8327 10.1703 11.0961 9.53441 11.5649 9.06557C12.0338 8.59672 12.6696 8.33333 13.3327 8.33333H14.1652L14.166 6.66667H15.8327ZM14.166 10H13.3327C13.1203 10.0002 12.916 10.0816 12.7615 10.2274C12.6071 10.3732 12.5142 10.5725 12.5017 10.7845C12.4893 10.9965 12.5582 11.2053 12.6946 11.3682C12.8309 11.5311 13.0243 11.6357 13.2352 11.6608L13.3327 11.6667H14.166V10ZM6.99852 9.07083L6.29268 10.8333H7.70268L6.99852 9.07083Z" fill="#617D97"/>
</g>
<defs>
<clipPath id="clip0_162_18089">
<rect width="20" height="20" fill="white"/>
</clipPath>
</defs>
</svg>
