<svg width="24" height="24" viewBox="0 0 24 24" fill="none" xmlns="http://www.w3.org/2000/svg">
<path fill-rule="evenodd" clip-rule="evenodd" d="M17.3624 12.0937C17.39 14.9693 19.9717 15.9256 20 15.9376C19.9776 16.0053 19.5877 17.3014 18.6402 18.6403C17.8209 19.7981 16.9703 20.9506 15.6321 20.9747C14.3163 20.9987 13.8936 20.2206 12.3892 20.2206C10.8848 20.2206 10.4151 20.9506 9.16936 20.9987C7.87741 21.0461 6.8926 19.7462 6.06733 18.593C4.37952 16.2346 3.0898 11.9275 4.82235 9.02106C5.68191 7.57761 7.21913 6.66266 8.88756 6.63936C10.1564 6.61605 11.3552 7.46484 12.1305 7.46484C12.9058 7.46484 14.3625 6.44389 15.893 6.59425C16.5334 6.61981 18.3316 6.84385 19.4864 8.47826C19.3932 8.53465 17.3393 9.68941 17.3624 12.0937ZM14.8896 5.03351C15.5755 4.22984 16.0377 3.11191 15.9117 2C14.9224 2.03759 13.7266 2.63677 13.0176 3.4397C12.381 4.15015 11.8248 5.28762 11.9747 6.37924C13.078 6.46118 14.2037 5.83719 14.8896 5.03351Z" fill="white"/>
</svg>
