<svg width="101" height="100" viewBox="0 0 101 100" fill="none" xmlns="http://www.w3.org/2000/svg">
<g clip-path="url(#clip0_205_16797)">
<path d="M50.4997 91.6664C27.4872 91.6664 8.83301 73.0122 8.83301 49.9997C8.83301 26.9872 27.4872 8.33301 50.4997 8.33301C73.5122 8.33301 92.1664 26.9872 92.1664 49.9997C92.1664 73.0122 73.5122 91.6664 50.4997 91.6664ZM50.4997 83.333C59.3402 83.333 67.8187 79.8211 74.0699 73.5699C80.3211 67.3187 83.833 58.8402 83.833 49.9997C83.833 41.1591 80.3211 32.6807 74.0699 26.4295C67.8187 20.1782 59.3402 16.6663 50.4997 16.6663C41.6591 16.6663 33.1807 20.1782 26.9295 26.4295C20.6782 32.6807 17.1663 41.1591 17.1663 49.9997C17.1663 58.8402 20.6782 67.3187 26.9295 73.5699C33.1807 79.8211 41.6591 83.333 50.4997 83.333ZM46.3455 66.6663L28.6663 48.9872L34.558 43.0955L46.3455 54.883L69.9122 31.3122L75.808 37.2038L46.3455 66.6663Z" fill="#024D91"/>
</g>
<defs>
<clipPath id="clip0_205_16797">
<rect width="100" height="100" fill="white" transform="translate(0.5)"/>
</clipPath>
</defs>
</svg>
