<svg width="12" height="12" viewBox="0 0 12 12" fill="none" xmlns="http://www.w3.org/2000/svg">
<path d="M6.00049 11C3.23899 11 1.00049 8.7615 1.00049 6C1.00049 3.2385 3.23899 1 6.00049 1C8.76199 1 11.0005 3.2385 11.0005 6C11.0005 8.7615 8.76199 11 6.00049 11ZM6.00049 10C7.06135 10 8.07877 9.57857 8.82892 8.82843C9.57906 8.07828 10.0005 7.06087 10.0005 6C10.0005 4.93913 9.57906 3.92172 8.82892 3.17157C8.07877 2.42143 7.06135 2 6.00049 2C4.93962 2 3.92221 2.42143 3.17206 3.17157C2.42192 3.92172 2.00049 4.93913 2.00049 6C2.00049 7.06087 2.42192 8.07828 3.17206 8.82843C3.92221 9.57857 4.93962 10 6.00049 10ZM5.50199 8L3.38049 5.8785L4.08749 5.1715L5.50199 6.586L8.32999 3.7575L9.03749 4.4645L5.50199 8Z" fill="#024D91"/>
</svg>
