<svg width="15" height="16" viewBox="0 0 15 16" fill="none" xmlns="http://www.w3.org/2000/svg">
<path d="M9.61394 8.42159C9.69635 8.33928 9.7427 8.22762 9.7428 8.11116V7.88859C9.74145 7.77237 9.69529 7.66117 9.61394 7.57816L6.60337 4.57344C6.54838 4.518 6.47353 4.48682 6.39544 4.48682C6.31735 4.48682 6.2425 4.518 6.18751 4.57344L5.77165 4.9893C5.71656 5.04328 5.68551 5.11717 5.68551 5.1943C5.68551 5.27143 5.71656 5.34532 5.77165 5.3993L8.37808 7.99987L5.77165 10.6004C5.71621 10.6554 5.68503 10.7303 5.68503 10.8084C5.68503 10.8865 5.71621 10.9613 5.77165 11.0163L6.18751 11.4263C6.2425 11.4817 6.31735 11.5129 6.39544 11.5129C6.47353 11.5129 6.54838 11.4817 6.60337 11.4263L9.61394 8.42159Z" fill="#024D91"/>
</svg>
