<svg width="25" height="25" viewBox="0 0 25 25" fill="none" xmlns="http://www.w3.org/2000/svg">
<g clip-path="url(#clip0_312_15293)">
<path d="M17.709 3.12533H21.8757C22.1519 3.12533 22.4169 3.23507 22.6122 3.43042C22.8076 3.62577 22.9173 3.89073 22.9173 4.16699V20.8337C22.9173 21.1099 22.8076 21.3749 22.6122 21.5702C22.4169 21.7656 22.1519 21.8753 21.8757 21.8753H3.12565C2.84938 21.8753 2.58443 21.7656 2.38908 21.5702C2.19373 21.3749 2.08398 21.1099 2.08398 20.8337V4.16699C2.08398 3.89073 2.19373 3.62577 2.38908 3.43042C2.58443 3.23507 2.84938 3.12533 3.12565 3.12533H7.29232V1.04199H9.37565V3.12533H15.6257V1.04199H17.709V3.12533ZM20.834 11.4587H4.16732V19.792H20.834V11.4587ZM15.6257 5.20866H9.37565V7.29199H7.29232V5.20866H4.16732V9.37533H20.834V5.20866H17.709V7.29199H15.6257V5.20866ZM6.25065 13.542H8.33398V15.6253H6.25065V13.542ZM11.459 13.542H13.5423V15.6253H11.459V13.542ZM16.6673 13.542H18.7507V15.6253H16.6673V13.542Z" fill="#516D9B"/>
</g>
<defs>
<clipPath id="clip0_312_15293">
<rect width="25" height="25" fill="white"/>
</clipPath>
</defs>
</svg>
