<svg width="13" height="13" viewBox="0 0 13 13" fill="none" xmlns="http://www.w3.org/2000/svg">
<path d="M6.50049 11.5C3.73899 11.5 1.50049 9.2615 1.50049 6.5C1.50049 3.7385 3.73899 1.5 6.50049 1.5C9.26199 1.5 11.5005 3.7385 11.5005 6.5C11.5005 9.2615 9.26199 11.5 6.50049 11.5ZM6.50049 10.5C7.56135 10.5 8.57877 10.0786 9.32892 9.32843C10.0791 8.57828 10.5005 7.56087 10.5005 6.5C10.5005 5.43913 10.0791 4.42172 9.32892 3.67157C8.57877 2.92143 7.56135 2.5 6.50049 2.5C5.43962 2.5 4.42221 2.92143 3.67206 3.67157C2.92192 4.42172 2.50049 5.43913 2.50049 6.5C2.50049 7.56087 2.92192 8.57828 3.67206 9.32843C4.42221 10.0786 5.43962 10.5 6.50049 10.5ZM6.00199 8.5L3.88049 6.3785L4.58749 5.6715L6.00199 7.086L8.82999 4.2575L9.53749 4.9645L6.00199 8.5Z" fill="#024D91"/>
</svg>
