<svg width="16" height="16" viewBox="0 0 16 16" fill="none" xmlns="http://www.w3.org/2000/svg">
<path d="M11.3339 1.99984H14.0005C14.1773 1.99984 14.3469 2.07008 14.4719 2.1951C14.597 2.32012 14.6672 2.48969 14.6672 2.6665V13.3332C14.6672 13.51 14.597 13.6796 14.4719 13.8046C14.3469 13.9296 14.1773 13.9998 14.0005 13.9998H2.00053C1.82372 13.9998 1.65415 13.9296 1.52912 13.8046C1.4041 13.6796 1.33386 13.51 1.33386 13.3332V2.6665C1.33386 2.48969 1.4041 2.32012 1.52912 2.1951C1.65415 2.07008 1.82372 1.99984 2.00053 1.99984H4.6672V0.666504H6.00053V1.99984H10.0005V0.666504H11.3339V1.99984ZM2.6672 5.99984V12.6665H13.3339V5.99984H2.6672ZM4.00053 7.33317H5.33386V8.6665H4.00053V7.33317ZM7.33386 7.33317H8.6672V8.6665H7.33386V7.33317ZM10.6672 7.33317H12.0005V8.6665H10.6672V7.33317Z" fill="white"/>
</svg>
