<svg width="12" height="13" viewBox="0 0 12 13" fill="none" xmlns="http://www.w3.org/2000/svg">
<path d="M1.746 4.81855L2.389 10.2861H9.611L10.254 4.81855L8.249 6.15505L6 3.00655L3.751 6.15505L1.746 4.81855ZM1.4005 3.38605L3.5 4.78605L5.593 1.85605C5.63926 1.79124 5.70032 1.7384 5.77111 1.70195C5.8419 1.6655 5.92038 1.64648 6 1.64648C6.07963 1.64648 6.1581 1.6655 6.2289 1.70195C6.29969 1.7384 6.36075 1.79124 6.407 1.85605L8.5 4.78605L10.6 3.38605C10.6795 3.33318 10.7724 3.30415 10.8679 3.30242C10.9633 3.30069 11.0573 3.32631 11.1386 3.37626C11.22 3.42622 11.2853 3.49841 11.3269 3.58432C11.3686 3.67023 11.3847 3.76625 11.3735 3.86105L10.552 10.8446C10.5377 10.9662 10.4792 11.0783 10.3877 11.1597C10.2962 11.2411 10.178 11.286 10.0555 11.2861H1.9445C1.82204 11.286 1.70384 11.2411 1.61232 11.1597C1.5208 11.0783 1.46233 10.9662 1.448 10.8446L0.626504 3.86055C0.615404 3.76579 0.631646 3.66984 0.673314 3.58401C0.714982 3.49818 0.780335 3.42607 0.861659 3.37618C0.942983 3.32629 1.03688 3.30071 1.13227 3.30246C1.22766 3.30421 1.32056 3.33322 1.4 3.38605H1.4005ZM6 8.28605C5.73479 8.28605 5.48043 8.18069 5.2929 7.99316C5.10536 7.80562 5 7.55127 5 7.28605C5 7.02084 5.10536 6.76648 5.2929 6.57895C5.48043 6.39141 5.73479 6.28605 6 6.28605C6.26522 6.28605 6.51957 6.39141 6.70711 6.57895C6.89465 6.76648 7 7.02084 7 7.28605C7 7.55127 6.89465 7.80562 6.70711 7.99316C6.51957 8.18069 6.26522 8.28605 6 8.28605Z" fill="url(#paint0_linear_515_2985)"/>
<defs>
<linearGradient id="paint0_linear_515_2985" x1="6.00004" y1="1.64648" x2="6.00004" y2="11.2861" gradientUnits="userSpaceOnUse">
<stop stop-color="#0F62AE"/>
<stop offset="0.0001" stop-color="#0F4475"/>
<stop offset="1" stop-color="#072948"/>
</linearGradient>
</defs>
</svg>
