<svg width="15" height="16" viewBox="0 0 15 16" fill="none" xmlns="http://www.w3.org/2000/svg">
<path d="M5.38606 8.42159C5.30365 8.33928 5.2573 8.22762 5.2572 8.11116V7.88859C5.25855 7.77237 5.30471 7.66117 5.38606 7.57816L8.39663 4.57344C8.45162 4.518 8.52647 4.48682 8.60456 4.48682C8.68265 4.48682 8.7575 4.518 8.81249 4.57344L9.22835 4.9893C9.28344 5.04328 9.31449 5.11717 9.31449 5.1943C9.31449 5.27143 9.28344 5.34532 9.22835 5.3993L6.62192 7.99987L9.22835 10.6004C9.28379 10.6554 9.31497 10.7303 9.31497 10.8084C9.31497 10.8865 9.28379 10.9613 9.22835 11.0163L8.81249 11.4263C8.7575 11.4817 8.68265 11.5129 8.60456 11.5129C8.52647 11.5129 8.45162 11.4817 8.39663 11.4263L5.38606 8.42159Z" fill="#BCBCBC"/>
</svg>
