<svg width="20" height="21" viewBox="0 0 20 21" fill="none" xmlns="http://www.w3.org/2000/svg">
<path d="M7.78449 15.9793L6.17532 15.5476L6.83116 13.0984C5.84947 12.7364 4.93709 12.2087 4.13366 11.5384L2.33949 13.3334L1.16033 12.1543L2.95533 10.3601C1.94206 9.14657 1.26123 7.69074 0.979492 6.1351L2.61949 5.83594C3.25199 9.3376 6.31533 11.9943 9.99949 11.9943C13.6828 11.9943 16.747 9.3376 17.3795 5.83594L19.0195 6.13427C18.7381 7.69012 18.0576 9.14624 17.0445 10.3601L18.8387 12.1543L17.6595 13.3334L15.8653 11.5384C15.0619 12.2087 14.1495 12.7364 13.1678 13.0984L13.8237 15.5484L12.2145 15.9793L11.5578 13.5293C10.5265 13.706 9.47253 13.706 8.44116 13.5293L7.78449 15.9793Z" fill="#617D97"/>
</svg>
