<svg width="17" height="17" viewBox="0 0 17 17" fill="none" xmlns="http://www.w3.org/2000/svg">
<g clip-path="url(#clip0_160_13520)">
<path d="M4.95833 4.25033V2.12533C4.95833 1.93746 5.03296 1.7573 5.1658 1.62446C5.29864 1.49162 5.4788 1.41699 5.66667 1.41699H14.1667C14.3545 1.41699 14.5347 1.49162 14.6675 1.62446C14.8004 1.7573 14.875 1.93746 14.875 2.12533V12.042C14.875 12.2299 14.8004 12.41 14.6675 12.5429C14.5347 12.6757 14.3545 12.7503 14.1667 12.7503H12.0417V14.8753C12.0417 15.2663 11.7229 15.5837 11.3284 15.5837H2.83829C2.74488 15.5842 2.65228 15.5663 2.56581 15.531C2.47934 15.4956 2.40071 15.4436 2.33442 15.3777C2.26814 15.3119 2.21552 15.2337 2.17958 15.1474C2.14364 15.0612 2.12509 14.9687 2.125 14.8753L2.12713 4.95866C2.12713 4.56766 2.44588 4.25033 2.84042 4.25033H4.95833ZM3.54379 5.66699L3.54167 14.167H10.625V5.66699H3.54379ZM6.375 4.25033H12.0417V11.3337H13.4583V2.83366H6.375V4.25033Z" fill="#8F8F8F"/>
</g>
<defs>
<clipPath id="clip0_160_13520">
<rect width="17" height="17" fill="white"/>
</clipPath>
</defs>
</svg>
