<svg width="17" height="17" viewBox="0 0 17 17" fill="none" xmlns="http://www.w3.org/2000/svg">
<path d="M4.61301 12.4994C4.75074 12.109 5.00617 11.771 5.34407 11.5319C5.68198 11.2928 6.08573 11.1644 6.49967 11.1644C6.91362 11.1644 7.31737 11.2928 7.65527 11.5319C7.99318 11.771 8.24861 12.109 8.38634 12.4994H15.1663V13.8327H8.38634C8.24861 14.223 7.99318 14.5611 7.65527 14.8002C7.31737 15.0393 6.91362 15.1677 6.49967 15.1677C6.08573 15.1677 5.68198 15.0393 5.34407 14.8002C5.00617 14.5611 4.75074 14.223 4.61301 13.8327H1.83301V12.4994H4.61301ZM8.61301 7.83269C8.75074 7.44233 9.00617 7.10431 9.34407 6.86521C9.68198 6.62612 10.0857 6.49772 10.4997 6.49772C10.9136 6.49772 11.3174 6.62612 11.6553 6.86521C11.9932 7.10431 12.2486 7.44233 12.3863 7.83269H15.1663V9.16602H12.3863C12.2486 9.55638 11.9932 9.8944 11.6553 10.1335C11.3174 10.3726 10.9136 10.501 10.4997 10.501C10.0857 10.501 9.68198 10.3726 9.34407 10.1335C9.00617 9.8944 8.75074 9.55638 8.61301 9.16602H1.83301V7.83269H8.61301ZM4.61301 3.16602C4.75074 2.77567 5.00617 2.43764 5.34407 2.19855C5.68198 1.95945 6.08573 1.83105 6.49967 1.83105C6.91362 1.83105 7.31737 1.95945 7.65527 2.19855C7.99318 2.43764 8.24861 2.77567 8.38634 3.16602H15.1663V4.49936H8.38634C8.24861 4.88971 7.99318 5.22773 7.65527 5.46683C7.31737 5.70592 6.91362 5.83432 6.49967 5.83432C6.08573 5.83432 5.68198 5.70592 5.34407 5.46683C5.00617 5.22773 4.75074 4.88971 4.61301 4.49936H1.83301V3.16602H4.61301Z" fill="#617D97"/>
</svg>
