<svg width="20" height="20" viewBox="0 0 20 20" fill="none" xmlns="http://www.w3.org/2000/svg">
<rect width="20" height="20" rx="8" fill="#CD8923"/>
<path d="M6.44444 6H13.5556C13.6734 6 13.7865 6.04683 13.8698 6.13017C13.9532 6.21352 14 6.32657 14 6.44444V13.5556C14 13.6734 13.9532 13.7865 13.8698 13.8698C13.7865 13.9532 13.6734 14 13.5556 14H6.44444C6.32657 14 6.21352 13.9532 6.13017 13.8698C6.04683 13.7865 6 13.6734 6 13.5556V6.44444C6 6.32657 6.04683 6.21352 6.13017 6.13017C6.21352 6.04683 6.32657 6 6.44444 6ZM6.88889 6.88889V13.1111H13.1111V6.88889H6.88889ZM9.55689 11.7778L7.67111 9.892L8.29956 9.26356L9.55689 10.5209L12.0707 8.00667L12.6996 8.63511L9.55689 11.7778Z" fill="white"/>
</svg>
