<svg width="24" height="24" viewBox="0 0 24 24" fill="none" xmlns="http://www.w3.org/2000/svg">
<path fill-rule="evenodd" clip-rule="evenodd" d="M12 5.00092C10.6583 5.00127 9.34499 5.38719 8.2164 6.11274C7.08781 6.83829 6.19151 7.8729 5.63422 9.09337C5.07693 10.3138 4.88213 11.6688 5.07301 12.9968C5.26389 14.3249 5.83242 15.5701 6.71089 16.5842C7.58936 17.5983 8.74077 18.3386 10.028 18.7169C11.3153 19.0952 12.6841 19.0956 13.9716 18.7181C15.2591 18.3405 16.4109 17.6009 17.29 16.5873C18.1691 15.5737 18.7383 14.3288 18.93 13.0009H13C12.7348 13.0009 12.4804 12.8956 12.2929 12.708C12.1054 12.5205 12 12.2661 12 12.0009C12 11.7357 12.1054 11.4814 12.2929 11.2938C12.4804 11.1063 12.7348 11.0009 13 11.0009H20C20.2652 11.0009 20.5196 11.1063 20.7071 11.2938C20.8946 11.4814 21 11.7357 21 12.0009C20.9998 14.0423 20.3056 16.023 19.0313 17.6179C17.7571 19.2127 15.9785 20.327 13.9874 20.7778C11.9964 21.2286 9.91133 20.9891 8.07436 20.0987C6.23738 19.2083 4.7577 17.7198 3.87817 15.8776C2.99864 14.0354 2.77154 11.9489 3.23412 9.96058C3.69671 7.97228 4.8215 6.20031 6.42389 4.93552C8.02627 3.67073 10.011 2.98827 12.0524 3.00015C14.0938 3.01204 16.0705 3.71756 17.658 5.00092C17.8642 5.16775 17.9957 5.40965 18.0235 5.67342C18.0514 5.93719 17.9733 6.20122 17.8065 6.40742C17.6397 6.61363 17.3978 6.74512 17.134 6.77297C16.8702 6.80082 16.6062 6.72275 16.4 6.55592C15.1557 5.54719 13.6018 4.99803 12 5.00092V5.00092Z" fill="white"/>
</svg>
