<svg width="25" height="25" viewBox="0 0 25 25" fill="none" xmlns="http://www.w3.org/2000/svg">
<path d="M18.3926 15.446L16.9197 13.9731L18.3926 12.5002C18.7796 12.1133 19.0865 11.6539 19.2959 11.1484C19.5053 10.6429 19.6131 10.101 19.6131 9.55385C19.6131 9.00666 19.5053 8.46483 19.2959 7.9593C19.0865 7.45376 18.7796 6.99442 18.3926 6.6075C18.0057 6.22058 17.5464 5.91366 17.0408 5.70426C16.5353 5.49486 15.9935 5.38708 15.4463 5.38708C14.8991 5.38708 14.3573 5.49486 13.8517 5.70426C13.3462 5.91366 12.8868 6.22058 12.4999 6.6075L11.027 8.08042L9.55409 6.6075L11.027 5.13458C12.2023 3.97825 13.787 3.33318 15.4357 3.3399C17.0845 3.34661 18.6638 4.00456 19.8297 5.17043C20.9956 6.33629 21.6535 7.91562 21.6602 9.56439C21.6669 11.2132 21.0219 12.7978 19.8655 13.9731L18.3926 15.446ZM15.4458 18.3929L13.9728 19.8658C13.3942 20.454 12.7049 20.9217 11.9446 21.2421C11.1843 21.5625 10.3681 21.7291 9.54303 21.7325C8.71799 21.7359 7.90045 21.5758 7.13757 21.2617C6.37468 20.9475 5.68156 20.4854 5.09816 19.902C4.51477 19.3186 4.05265 18.6254 3.73847 17.8626C3.42429 17.0997 3.26427 16.2821 3.26763 15.4571C3.27099 14.6321 3.43767 13.8159 3.75805 13.0556C4.07843 12.2953 4.54617 11.6059 5.1343 11.0273L6.60721 9.55437L8.08013 11.0273L6.60721 12.5002C6.22029 12.8871 5.91337 13.3465 5.70397 13.852C5.49457 14.3575 5.38679 14.8994 5.38679 15.4466C5.38679 15.9937 5.49457 16.5356 5.70397 17.0411C5.91337 17.5467 6.22029 18.006 6.60721 18.3929C6.99413 18.7798 7.45348 19.0868 7.95901 19.2962C8.46455 19.5056 9.00638 19.6133 9.55357 19.6133C10.1008 19.6133 10.6426 19.5056 11.1481 19.2962C11.6537 19.0868 12.113 18.7798 12.4999 18.3929L13.9728 16.92L15.4458 18.3929ZM15.4458 8.08042L16.9197 9.55437L9.55409 16.919L8.08013 15.446L15.4458 8.08146V8.08042Z" fill="#617D97"/>
</svg>
