<svg width="20" height="19" viewBox="0 0 20 19" fill="none" xmlns="http://www.w3.org/2000/svg">
<path d="M13.5331 3.1543C15.9382 3.1543 17.8873 5.0293 17.8873 7.6543C17.8873 12.9043 11.9498 15.9043 9.97059 17.0293C7.99142 15.9043 2.05392 12.9043 2.05392 7.6543C2.05392 5.0293 4.03309 3.1543 6.40809 3.1543C7.88059 3.1543 9.17892 3.9043 9.97059 4.6543C10.7623 3.9043 12.0606 3.1543 13.5331 3.1543ZM10.71 14.8573C11.4075 14.4403 12.0368 14.0255 12.6258 13.5815C14.9858 11.804 16.3039 9.86155 16.3039 7.6543C16.3039 5.8843 15.0871 4.6543 13.5331 4.6543C12.6813 4.6543 11.7598 5.0818 11.09 5.7148L9.97059 6.7753L8.85117 5.7148C8.18142 5.0818 7.25992 4.6543 6.40809 4.6543C4.87226 4.6543 3.63726 5.8963 3.63726 7.6543C3.63726 9.8623 4.95617 11.804 7.31455 13.5815C7.90434 14.0255 8.53372 14.4403 9.23117 14.8565C9.46788 14.9983 9.70222 15.134 9.97059 15.2855C10.239 15.134 10.4733 14.9983 10.71 14.8573Z" fill="#516D9B"/>
</svg>
