<svg width="20" height="20" viewBox="0 0 20 20" fill="none" xmlns="http://www.w3.org/2000/svg">
<g clip-path="url(#clip0_162_18032)">
<path d="M3.33398 15.0003H5.00065V16.667H15.0007V3.33366H5.00065V5.00033H3.33398V2.50033C3.33398 2.27931 3.42178 2.06735 3.57806 1.91107C3.73434 1.75479 3.9463 1.66699 4.16732 1.66699H15.834C16.055 1.66699 16.267 1.75479 16.4232 1.91107C16.5795 2.06735 16.6673 2.27931 16.6673 2.50033V17.5003C16.6673 17.7213 16.5795 17.9333 16.4232 18.0896C16.267 18.2459 16.055 18.3337 15.834 18.3337H4.16732C3.9463 18.3337 3.73434 18.2459 3.57806 18.0896C3.42178 17.9333 3.33398 17.7213 3.33398 17.5003V15.0003ZM5.00065 9.16699H10.834V10.8337H5.00065V13.3337L0.833984 10.0003L5.00065 6.66699V9.16699Z" fill="#617D97"/>
</g>
<defs>
<clipPath id="clip0_162_18032">
<rect width="20" height="20" fill="white"/>
</clipPath>
</defs>
</svg>
