<svg width="13" height="14" viewBox="0 0 13 14" fill="none" xmlns="http://www.w3.org/2000/svg">
<g clip-path="url(#clip0_510_8631)">
<path d="M8.93751 2.41113C10.5831 2.41113 11.9167 3.7653 11.9167 5.66113C11.9167 9.4528 7.85418 11.6195 6.50001 12.432C5.14584 11.6195 1.08334 9.4528 1.08334 5.66113C1.08334 3.7653 2.43751 2.41113 4.06251 2.41113C5.07001 2.41113 5.95834 2.9528 6.50001 3.49447C7.04168 2.9528 7.93001 2.41113 8.93751 2.41113ZM7.00593 10.8633C7.48313 10.5621 7.91376 10.2626 8.31676 9.94192C9.93147 8.65817 10.8333 7.25526 10.8333 5.66113C10.8333 4.3828 10.0008 3.49447 8.93751 3.49447C8.35468 3.49447 7.72418 3.80322 7.26593 4.26038L6.50001 5.0263L5.73409 4.26038C5.27584 3.80322 4.64534 3.49447 4.06251 3.49447C3.01168 3.49447 2.16668 4.39147 2.16668 5.66113C2.16668 7.2558 3.06909 8.65817 4.68272 9.94192C5.08626 10.2626 5.51688 10.5621 5.99409 10.8628C6.15605 10.9651 6.31638 11.0632 6.50001 11.1726C6.68363 11.0632 6.84397 10.9651 7.00593 10.8633Z" fill="#516D9B"/>
</g>
<defs>
<clipPath id="clip0_510_8631">
<rect width="13" height="13" fill="white" transform="translate(0 0.786133)"/>
</clipPath>
</defs>
</svg>
