<svg width="25" height="24" viewBox="0 0 25 24" fill="none" xmlns="http://www.w3.org/2000/svg">
<path fill-rule="evenodd" clip-rule="evenodd" d="M17.2263 18.7827C15.4458 20.1721 13.2056 21 10.7721 21C4.9731 21 0.272095 16.299 0.272095 10.5C0.272095 4.70101 4.9731 0 10.7721 0C16.5711 0 21.2721 4.70101 21.2721 10.5C21.2721 12.4169 20.7584 14.2139 19.8612 15.7607L25 20.8995L22.1716 23.728L17.2263 18.7827ZM16.2721 10.5C16.2721 13.5376 13.8097 16 10.7721 16C7.73453 16 5.27209 13.5376 5.27209 10.5C5.27209 7.46243 7.73453 5 10.7721 5C13.8097 5 16.2721 7.46243 16.2721 10.5Z" fill="#6496C2"/>
</svg>
