<svg width="34" height="25" viewBox="0 0 34 25" fill="none" xmlns="http://www.w3.org/2000/svg">
<path d="M0.412719 5.81084C1.42155 1.46906 4.8202 -0.915879 10.5615 1.62233L20.2183 7.66575L27.6607 4.19527C30.8444 3.37735 32.9905 3.95936 33.75 7.96493L33.504 18.1969C32.6898 21.0765 30.874 22.2238 28.0298 21.6075L22.9246 19.1542C22.1371 18.2403 21.9999 16.275 24.4008 16.5813L28.6449 18.9149C30.4213 18.9522 31.1057 18.5215 31.4742 16.5813V8.98215C31.3624 7.56502 30.5865 6.6803 28.6449 6.76822L14.9901 14.128C12.7409 14.6666 11.7644 12.7373 13.2679 11.3157L17.0814 9.34116L9.76192 4.97314C6.75688 4.25058 5.63309 4.96295 4.84129 7.36657V17.7182C6.12477 20.5566 7.43696 20.7239 10.5615 19.7526L24.6468 11.5551C26.5328 11.4147 26.8449 12.6124 26.123 13.8887L10.5615 23.5821C6.23928 25.3542 1.09478 24.5275 0.166687 18.9149L0.412719 5.81084Z" fill="white"/>
</svg>
