<svg width="30" height="30" viewBox="0 0 30 30" fill="none" xmlns="http://www.w3.org/2000/svg">
<path fill-rule="evenodd" clip-rule="evenodd" d="M13.2745 12.3863V2L2 7.01168L2.17951 7.48847L2.05864 7.42134V22.7459L10.3359 28H19.6641L27.9414 22.7459V7.42134L27.8205 7.48847L28 7.01168L16.7255 2V12.3863H13.2745ZM19.3138 6.18917L25.3383 8.86714L19.3138 12.2133V6.18917ZM10.6862 12.2133V6.18917L4.66172 8.86714L10.6862 12.2133ZM4.64691 21.1317V12.0174L10.3746 15.1987H19.6254L25.3531 12.0174L25.2842 20.5349L21.3897 18.5758C20.3243 18.0398 19.0812 18.1292 18.09 18.813L16.7514 19.7365L13.9296 17.5686C12.7632 16.6724 11.2139 16.6519 10.0249 17.5008C8.90387 18.3011 7.62457 19.202 6.59332 19.9014C6.07649 20.2519 5.62958 20.5467 5.29881 20.7517C4.81276 21.053 5.1139 20.9555 4.64691 21.1317ZM6.38479 22.2348L11.0365 25.1876H18.9635L24.0313 21.9707L20.6648 20.2772C20.1321 20.0092 19.5105 20.0539 19.0149 20.3958L16.6997 21.9931L12.9335 19.0995C12.3512 18.6522 11.5732 18.6388 10.9724 19.0678C9.84716 19.8711 8.55497 20.7812 7.50696 21.492C7.08953 21.7751 6.70599 22.0299 6.38479 22.2348Z" fill="#024D91"/>
</svg>
