<svg width="52" height="61" viewBox="0 0 52 61" fill="none" xmlns="http://www.w3.org/2000/svg">
<path d="M26.2488 58.1443L26.8876 59.409L27.5265 58.1444L31.1993 50.8749C42.6259 48.5468 51.224 38.442 51.224 26.3275C51.224 12.4917 40.0075 1.27544 26.1719 1.27544C12.3362 1.27544 1.11977 12.4917 1.11977 26.3275C1.11977 38.9894 10.514 49.4567 22.712 51.1425L26.2488 58.1443Z" fill="#FF912C" stroke="white" stroke-width="1.43155"/>
<g clip-path="url(#clip0_527_15000)">
<path d="M21.6968 35.7253H25.4546V28.137L20.4442 23.7679L15.4338 28.137V35.7253H19.1916V30.7149H21.6968V35.7253ZM36.7281 38.2305H14.1812C13.849 38.2305 13.5304 38.0985 13.2955 37.8636C13.0606 37.6287 12.9286 37.3101 12.9286 36.9779V27.5671C12.9286 27.3881 12.9669 27.2112 13.041 27.0482C13.1151 26.8853 13.2233 26.7402 13.3582 26.6226L17.939 22.628V16.9362C17.939 16.604 18.071 16.2854 18.3059 16.0505C18.5408 15.8156 18.8594 15.6836 19.1916 15.6836H36.7281C37.0603 15.6836 37.3789 15.8156 37.6138 16.0505C37.8487 16.2854 37.9807 16.604 37.9807 16.9362V36.9779C37.9807 37.3101 37.8487 37.6287 37.6138 37.8636C37.3789 38.0985 37.0603 38.2305 36.7281 38.2305ZM30.4651 25.7044V28.2096H32.9703V25.7044H30.4651ZM30.4651 30.7149V33.2201H32.9703V30.7149H30.4651ZM30.4651 20.694V23.1992H32.9703V20.694H30.4651ZM25.4546 20.694V23.1992H27.9599V20.694H25.4546Z" fill="white"/>
</g>
<defs>
<clipPath id="clip0_527_15000">
<rect width="30.0625" height="30.0625" fill="white" transform="translate(10.4247 11.9253)"/>
</clipPath>
</defs>
</svg>
