<svg width="30" height="30" viewBox="0 0 30 30" fill="none" xmlns="http://www.w3.org/2000/svg">
<rect x="0.365854" y="0.365854" width="29.2683" height="29.2683" rx="3.63415" fill="#3DB9FF"/>
<rect x="0.365854" y="0.365854" width="29.2683" height="29.2683" rx="3.63415" stroke="#ECECEC" stroke-width="0.731707"/>
<path d="M7.10566 12.3334C7.11091 12.0538 7.13909 11.7731 7.22693 11.5076C7.78211 9.82972 9.22275 8.95454 11.5332 9.86885C11.7105 9.939 11.8787 10.0305 12.0404 10.1316L14.4121 11.6159C15.5611 12.3349 16.9961 12.4232 18.2245 11.8504L19.3535 11.3239C19.5771 11.2197 19.8093 11.1316 20.0517 11.0859C21.2107 10.8673 22.026 11.1548 22.4036 12.4929C22.4802 12.7644 22.4966 13.0493 22.4898 13.3313L22.3986 17.1239C22.3905 17.4596 22.3528 17.7986 22.2171 18.1058C21.8469 18.9431 21.2183 19.3338 20.3259 19.2719C20.0135 19.2502 19.7173 19.1351 19.4351 18.9995L18.2563 18.433C17.7599 18.1945 17.1556 17.8297 17.285 17.2943C17.3108 17.1875 17.3655 17.091 17.4562 17.0169C17.8454 16.699 18.4111 17.0082 18.8515 17.2503L19.2828 17.4875C19.8484 17.7985 20.5956 18.1658 21.076 17.7347C21.1981 17.6251 21.2889 17.4683 21.3595 17.2493C21.4364 17.0109 21.4496 16.7578 21.4496 16.5073V13.3765C21.4204 13.0057 21.2926 12.7138 21.0241 12.538C20.521 12.2086 19.8689 12.5029 19.3395 12.7882L14.3007 15.5041C13.9959 15.6684 13.6659 15.8359 13.3241 15.7804C12.7166 15.6818 12.5093 15.0729 12.9472 14.5581C13.0091 14.4854 13.0897 14.4313 13.1746 14.3874C13.8867 14.0186 13.917 13.0113 13.2284 12.6003L11.6924 11.6837C11.5175 11.5793 11.3278 11.4987 11.1275 11.4618C10.2242 11.2952 9.73978 11.4739 9.41024 12.0417C9.1968 12.4094 9.15751 12.8476 9.15751 13.2727V16.5462C9.15751 17.1146 9.2289 17.7148 9.59708 18.1478C10.019 18.6439 10.5306 18.6866 11.3614 18.4728C11.6531 18.3977 11.929 18.271 12.1894 18.1195L17.5935 14.9743C18.0575 14.7043 18.7955 14.3682 19.0738 14.8272C19.3808 15.3335 18.7165 15.8051 18.214 16.1182L12.0835 19.9369C11.8932 20.0554 11.6944 20.161 11.4822 20.2332C9.65782 20.8537 7.62468 20.461 7.07533 18.3205C7.01475 18.0845 7.0023 17.8383 7.00688 17.5946L7.10566 12.3334Z" fill="white"/>
</svg>
