<svg width="17" height="17" viewBox="0 0 17 17" fill="none" xmlns="http://www.w3.org/2000/svg">
<g clip-path="url(#clip0_510_8623)">
<path d="M15.1667 2.94813C15.1655 2.77305 15.0954 2.60548 14.9717 2.48161C14.8479 2.35774 14.6804 2.28753 14.5054 2.28613H2.49469C2.12935 2.28613 1.83335 2.5828 1.83335 2.94813V13.6241C1.83457 13.7992 1.90462 13.9668 2.02836 14.0907C2.1521 14.2145 2.31961 14.2847 2.49469 14.2861H14.5054C14.6808 14.286 14.849 14.2161 14.973 14.092C15.097 13.9679 15.1667 13.7996 15.1667 13.6241V2.94813ZM9.16669 3.61947H13.8334V12.9528H9.16669V3.61947ZM7.83335 3.61947V12.9528H3.16669V3.61947H7.83335ZM7.16669 4.9528H3.83335V6.28613H7.16669V4.9528ZM7.16669 6.9528H3.83335V8.28613H7.16669V6.9528Z" fill="white"/>
</g>
<defs>
<clipPath id="clip0_510_8623">
<rect width="16" height="16" fill="white" transform="matrix(-1 0 0 1 16.5 0.286133)"/>
</clipPath>
</defs>
</svg>
