<svg width="20" height="21" viewBox="0 0 20 21" fill="none" xmlns="http://www.w3.org/2000/svg">
<path d="M10.0002 2.82812C14.4935 2.82812 18.2319 6.06146 19.016 10.3281C18.2327 14.5948 14.4935 17.8281 10.0002 17.8281C5.50687 17.8281 1.76854 14.5948 0.984375 10.3281C1.76771 6.06146 5.50687 2.82812 10.0002 2.82812ZM10.0002 16.1615C11.6998 16.1611 13.3489 15.5838 14.6776 14.5241C16.0063 13.4644 16.936 11.985 17.3144 10.3281C16.9346 8.67255 16.0043 7.1948 14.6757 6.13648C13.3471 5.07816 11.6988 4.5019 10.0002 4.5019C8.30162 4.5019 6.65328 5.07816 5.32469 6.13648C3.99609 7.1948 3.06585 8.67255 2.68604 10.3281C3.06446 11.985 3.9941 13.4644 5.32283 14.5241C6.65155 15.5838 8.30065 16.1611 10.0002 16.1615ZM10.0002 14.0781C9.00565 14.0781 8.05182 13.683 7.34856 12.9798C6.6453 12.2765 6.25021 11.3227 6.25021 10.3281C6.25021 9.33356 6.6453 8.37974 7.34856 7.67647C8.05182 6.97321 9.00565 6.57812 10.0002 6.57812C10.9948 6.57812 11.9486 6.97321 12.6519 7.67647C13.3551 8.37974 13.7502 9.33356 13.7502 10.3281C13.7502 11.3227 13.3551 12.2765 12.6519 12.9798C11.9486 13.683 10.9948 14.0781 10.0002 14.0781ZM10.0002 12.4115C10.5527 12.4115 11.0826 12.192 11.4733 11.8013C11.864 11.4106 12.0835 10.8807 12.0835 10.3281C12.0835 9.77559 11.864 9.24569 11.4733 8.85499C11.0826 8.46428 10.5527 8.24479 10.0002 8.24479C9.44767 8.24479 8.91777 8.46428 8.52707 8.85499C8.13637 9.24569 7.91687 9.77559 7.91687 10.3281C7.91687 10.8807 8.13637 11.4106 8.52707 11.8013C8.91777 12.192 9.44767 12.4115 10.0002 12.4115Z" fill="#617D97"/>
</svg>
