<svg width="53" height="62" viewBox="0 0 53 62" fill="none" xmlns="http://www.w3.org/2000/svg">
<path d="M26.4132 58.1531L27.052 59.4178L27.691 58.1532L31.3638 50.8837C42.7903 48.5556 51.3884 38.4508 51.3884 26.3363C51.3884 12.5005 40.172 1.28423 26.3363 1.28423C12.5007 1.28423 1.28423 12.5005 1.28423 26.3363C1.28423 38.9982 10.6785 49.4654 22.8765 51.1513L26.4132 58.1531Z" fill="#FF912C" stroke="white" stroke-width="1.43155"/>
<g clip-path="url(#clip0_527_15157)">
<path d="M21.8613 35.7341H25.6191V28.1458L20.6087 23.7767L15.5982 28.1458V35.7341H19.3561V30.7236H21.8613V35.7341ZM36.8925 38.2393H14.3456C14.0134 38.2393 13.6948 38.1073 13.4599 37.8724C13.225 37.6375 13.093 37.3189 13.093 36.9867V27.5758C13.093 27.3969 13.1314 27.22 13.2055 27.057C13.2796 26.8941 13.3877 26.749 13.5227 26.6314L18.1035 22.6368V16.945C18.1035 16.6128 18.2354 16.2942 18.4703 16.0593C18.7052 15.8244 19.0238 15.6924 19.3561 15.6924H36.8925C37.2247 15.6924 37.5433 15.8244 37.7783 16.0593C38.0132 16.2942 38.1451 16.6128 38.1451 16.945V36.9867C38.1451 37.3189 38.0132 37.6375 37.7783 37.8724C37.5433 38.1073 37.2247 38.2393 36.8925 38.2393ZM30.6295 25.7132V28.2184H33.1347V25.7132H30.6295ZM30.6295 30.7236V33.2289H33.1347V30.7236H30.6295ZM30.6295 20.7028V23.208H33.1347V20.7028H30.6295ZM25.6191 20.7028V23.208H28.1243V20.7028H25.6191Z" fill="white"/>
</g>
<defs>
<clipPath id="clip0_527_15157">
<rect width="30.0625" height="30.0625" fill="white" transform="translate(10.5891 11.9341)"/>
</clipPath>
</defs>
</svg>
