<svg width="30" height="30" viewBox="0 0 30 30" fill="none" xmlns="http://www.w3.org/2000/svg">
<path d="M26.3267 0.5L22.2926 3.86361L19.3951 3.04927L17.6907 3.4651L10.6774 1.77025L9.7955 3.53403H8.1595L5.81374 6.41933V9.8603L4.54451 12.3375V14.5139L3.78789 16.3728L2 17.2667V19.4008L2.84813 20.249V21.3456H5.05259L5.38438 23.4469L4.54451 26.8065V28.2342L6.54529 29.4603H9.63353V27.7057H9.19184V26.8539H9.63354V26.031H9.19184V25.1623H9.63354V24.2577L9.18414 22.5992L9.65674 19.9825L8.94403 18.8927L10.849 17.5956L11.6635 18.4391L10.3626 20.6373L13.1453 23.1046L12.6135 24.2181V25.8173L15.4018 26.3612L16.2747 24.3196H18.5242V23.444L16.5055 20.8843L17.3552 19.4078L14.5934 15.9761L13.1887 14.9563L17.1207 13.6423L18.6162 11.2766L19.9953 11.8723L21.4015 10.4988L19.936 8.62305H17.5469L15.8226 9.94983L13.2216 10.3495L11.5493 12.4537H10.2321L8.76809 11.0032L8.45163 7.83015L9.42437 6.5032H11.789L14.3335 6.07854H15.167V5.6498H15.99V6.07854H19.2857L20.1339 6.51044H24.668L28.2678 2.42603L26.3267 0.5Z" fill="#ffffff"/>
<path d="M18.9494 12.359L20.1764 12.7599L21.3055 12.0376L22.9498 13.4339L21.1191 16.109L17.4674 14.7034L18.9494 12.359Z" fill="#ffffff"/>
<path d="M12.6455 28.7682L13.901 29.4747H14.4132L15.5707 28.7984V27.1485L13.1295 26.7122L12.6455 28.7682Z" fill="#ffffff"/>
<path d="M17.0934 25.1582H18.7753L20.1415 23.2549L22.1349 24.7234L20.348 27.2274L18.9634 27.6098V28.9791H16.4189V26.7737L17.0934 25.1582Z" fill="#ffffff"/>
</svg>
