<svg width="14" height="12" viewBox="0 0 14 12" fill="none" xmlns="http://www.w3.org/2000/svg">
<path d="M6.50026 7.70801H5.24026C4.20681 7.7076 3.1929 8.00145 2.30816 8.55779C1.42341 9.11413 0.701485 9.9118 0.220417 10.8646C0.206895 10.6877 0.20017 10.5104 0.200257 10.333C0.200257 6.70854 3.02077 3.77051 6.50026 3.77051V0.161133L13.1153 5.73926L6.50026 11.3174V7.70801ZM5.24026 6.39551H7.76026V8.56638L11.1125 5.73926L7.76026 2.91213V5.08301H6.50026C5.77592 5.08216 5.05995 5.24433 4.40134 5.55841C3.74274 5.87249 3.15705 6.33108 2.68435 6.90279C3.49788 6.56693 4.36516 6.3948 5.24026 6.39551Z" fill="#516D9B"/>
</svg>
