<svg width="20" height="20" viewBox="0 0 20 20" fill="none" xmlns="http://www.w3.org/2000/svg">
<g clip-path="url(#clip0_195_15766)">
<path d="M2.91056 6.72037L3.98222 15.8329H16.0189L17.0906 6.72037L13.7489 8.94787L10.0006 3.70037L6.25222 8.94787L2.91056 6.72037ZM2.33472 4.33287L5.83389 6.66621L9.32222 1.78287C9.39931 1.67485 9.50108 1.58679 9.61907 1.52604C9.73705 1.46529 9.86785 1.43359 10.0006 1.43359C10.1333 1.43359 10.2641 1.46529 10.382 1.52604C10.5 1.58679 10.6018 1.67485 10.6789 1.78287L14.1672 6.66621L17.6672 4.33287C17.7997 4.24474 17.9546 4.19638 18.1137 4.19349C18.2728 4.19059 18.4293 4.2333 18.5649 4.31656C18.7005 4.39981 18.8094 4.52014 18.8788 4.66332C18.9481 4.8065 18.9751 4.96654 18.9564 5.12454L17.5872 16.7637C17.5633 16.9664 17.4659 17.1533 17.3134 17.2889C17.1608 17.4246 16.9638 17.4995 16.7597 17.4995H3.24139C3.03728 17.4995 2.84027 17.4246 2.68775 17.2889C2.53522 17.1533 2.43777 16.9664 2.41389 16.7637L1.04472 5.12371C1.02622 4.96578 1.05329 4.80585 1.12274 4.6628C1.19219 4.51976 1.30111 4.39957 1.43665 4.31642C1.57219 4.23328 1.72869 4.19064 1.88767 4.19356C2.04666 4.19647 2.20149 4.24481 2.33389 4.33287H2.33472ZM10.0006 12.4995C9.55853 12.4995 9.13461 12.3239 8.82204 12.0114C8.50948 11.6988 8.33389 11.2749 8.33389 10.8329C8.33389 10.3908 8.50948 9.96692 8.82204 9.65436C9.13461 9.3418 9.55853 9.16621 10.0006 9.16621C10.4426 9.16621 10.8665 9.3418 11.1791 9.65436C11.4916 9.96692 11.6672 10.3908 11.6672 10.8329C11.6672 11.2749 11.4916 11.6988 11.1791 12.0114C10.8665 12.3239 10.4426 12.4995 10.0006 12.4995Z" fill="#617D97"/>
</g>
<defs>
<clipPath id="clip0_195_15766">
<rect width="20" height="20" fill="white"/>
</clipPath>
</defs>
</svg>
