<svg width="11" height="10" viewBox="0 0 11 10" fill="none" xmlns="http://www.w3.org/2000/svg">
<path fill-rule="evenodd" clip-rule="evenodd" d="M7.54194 7.91585C6.74988 8.50142 5.75336 8.85032 4.67083 8.85032C2.0912 8.85032 0 6.86911 0 4.42516C0 1.98121 2.0912 0 4.67083 0C7.25046 0 9.34167 1.98121 9.34167 4.42516C9.34167 5.23304 9.11316 5.99035 8.71404 6.64225L11 8.80798L9.7418 10L7.54194 7.91585ZM7.11746 4.42516C7.11746 5.70532 6.02207 6.7431 4.67083 6.7431C3.3196 6.7431 2.22421 5.70532 2.22421 4.42516C2.22421 3.145 3.3196 2.10722 4.67083 2.10722C6.02207 2.10722 7.11746 3.145 7.11746 4.42516Z" fill="#929394"/>
</svg>
