<svg width="21" height="18" viewBox="0 0 21 18" fill="none" xmlns="http://www.w3.org/2000/svg">
<path d="M9.97104 11.901H8.00692C6.39595 11.9003 4.81546 12.3584 3.4363 13.2256C2.05714 14.0929 0.931779 15.3363 0.181879 16.8215C0.160801 16.5458 0.150317 16.2694 0.150453 15.9929C0.150453 10.343 4.54713 5.7631 9.97104 5.7631V0.136719L20.2827 8.83203L9.97104 17.5273V11.901ZM8.00692 9.85501H11.9352V13.239L17.1607 8.83203L11.9352 4.42504V7.80905H9.97104C8.84192 7.80773 7.72585 8.06052 6.6992 8.55012C5.67256 9.03972 4.75957 9.75458 4.02271 10.6458C5.29086 10.1222 6.64281 9.85391 8.00692 9.85501Z" fill="#516D9B"/>
</svg>
