<svg width="13" height="13" viewBox="0 0 13 13" fill="none" xmlns="http://www.w3.org/2000/svg">
<path d="M6.53131 11.4983C5.52049 11.4983 4.57715 11.1861 3.78908 10.6549L1.87296 11.2821L2.49408 9.38501C1.89644 8.54442 1.54495 7.50881 1.54495 6.39212C1.54495 3.57638 3.78032 1.28599 6.52841 1.28599C9.2765 1.28599 11.5119 3.57638 11.5119 6.39212C11.5119 9.20778 9.2765 11.4983 6.52841 11.4983H6.53131V11.4983ZM6.53131 0.319336C3.25866 0.319336 0.604418 3.03917 0.604418 6.39221C0.604418 7.53888 0.91498 8.61355 1.454 9.52912L0.384644 12.7862L3.66605 11.7085C4.54312 12.2054 5.52908 12.4658 6.53131 12.465C9.80386 12.465 12.4582 9.74532 12.4582 6.39221C12.4581 3.03917 9.80386 0.319336 6.53131 0.319336Z" fill="#FEFEFE"/>
<path d="M6.53034 1.28613C3.78224 1.28613 1.54688 3.57653 1.54688 6.39227C1.54688 7.50896 1.89845 8.54457 2.49609 9.38516L1.87497 11.2823L3.79101 10.655C4.57907 11.1893 5.51952 11.4985 6.53323 11.4985C9.28132 11.4985 11.5167 9.20801 11.5167 6.39235C11.5167 3.57661 9.28132 1.28622 6.53323 1.28622H6.53034V1.28613Z" fill="url(#paint0_linear_510_8642)"/>
<path d="M5.13869 3.87923C5.04203 3.6421 4.96878 3.63312 4.82234 3.62702C4.76674 3.62335 4.71104 3.62138 4.65532 3.62109C4.46482 3.62109 4.26563 3.67811 4.14549 3.80417C3.99906 3.95726 3.63574 4.31444 3.63574 5.04692C3.63574 5.77941 4.15723 6.48784 4.22751 6.58696C4.30077 6.68591 5.2442 8.21086 6.70903 8.83237C7.85454 9.31866 8.19445 9.27359 8.45516 9.21657C8.836 9.13253 9.31358 8.84423 9.43372 8.49611C9.55386 8.14783 9.55386 7.85063 9.51864 7.7876C9.4835 7.72457 9.38676 7.68865 9.24033 7.6135C9.09389 7.53844 8.3819 7.17822 8.24712 7.13018C8.11524 7.07918 7.98931 7.09722 7.88976 7.24133C7.74912 7.44246 7.61145 7.64663 7.50007 7.76964C7.41218 7.86572 7.26856 7.87775 7.1485 7.82666C6.98735 7.7577 6.53622 7.59546 5.97951 7.08816C5.54881 6.69498 5.25586 6.20572 5.17094 6.05865C5.08594 5.90861 5.16218 5.82143 5.22948 5.74044C5.30274 5.64733 5.37302 5.58134 5.44628 5.49424C5.51954 5.40724 5.56055 5.36217 5.60743 5.26008C5.65729 5.16104 5.62206 5.05895 5.58692 4.98389C5.55178 4.90883 5.25883 4.17635 5.13869 3.87923Z" fill="#FEFEFE"/>
<defs>
<linearGradient id="paint0_linear_510_8642" x1="-35.9127" y1="-15.8215" x2="-35.9127" y2="-15.4468" gradientUnits="userSpaceOnUse">
<stop stop-color="#6EBF61"/>
<stop offset="0.231" stop-color="#50A557"/>
<stop offset="0.522" stop-color="#2A904F"/>
<stop offset="0.812" stop-color="#50A557"/>
<stop offset="1" stop-color="#6EBF63"/>
</linearGradient>
</defs>
</svg>
