<svg width="11" height="11" viewBox="0 0 11 11" fill="none" xmlns="http://www.w3.org/2000/svg">
<path d="M5.59763 9.86383C4.70071 9.86383 3.86366 9.58836 3.1644 9.11959L1.46417 9.67306L2.01531 7.99912C1.48501 7.25743 1.17312 6.34365 1.17312 5.35834C1.17312 2.87386 3.15662 0.852927 5.59507 0.852927C8.03352 0.852927 10.017 2.87386 10.017 5.35834C10.017 7.84274 8.03352 9.86375 5.59507 9.86375H5.59763V9.86383ZM5.59763 0C2.69374 0 0.338566 2.39986 0.338566 5.35841C0.338566 6.37019 0.614135 7.31843 1.09242 8.12628L0.143555 11.0001L3.05522 10.0493C3.83347 10.4877 4.70834 10.7174 5.59763 10.7168C8.50145 10.7168 10.8567 8.31705 10.8567 5.35841C10.8566 2.39986 8.50145 0 5.59763 0Z" fill="#FEFEFE"/>
<path d="M5.59675 0.852539C3.1583 0.852539 1.1748 2.87348 1.1748 5.35795C1.1748 6.34327 1.48676 7.25704 2.01707 7.99874L1.46593 9.67267L3.16608 9.1192C3.86534 9.59067 4.69983 9.86344 5.59932 9.86344C8.03776 9.86344 10.0213 7.84243 10.0213 5.35803C10.0213 2.87355 8.03776 0.852614 5.59932 0.852614H5.59675V0.852539Z" fill="url(#paint0_linear_618_10857)"/>
<path d="M4.3629 3.14183C4.27713 2.9326 4.21213 2.92468 4.0822 2.9193C4.03286 2.91606 3.98343 2.91431 3.93399 2.91406C3.76495 2.91406 3.58821 2.96437 3.48161 3.0756C3.35167 3.21068 3.0293 3.52584 3.0293 4.17215C3.0293 4.81846 3.49203 5.44354 3.55439 5.531C3.61939 5.61831 4.45652 6.96386 5.7563 7.51224C6.77274 7.94132 7.07435 7.90156 7.30568 7.85125C7.64361 7.77709 8.06738 7.52271 8.17399 7.21555C8.28059 6.90824 8.28059 6.64601 8.24933 6.59039C8.21815 6.53478 8.13231 6.50308 8.00238 6.43678C7.87244 6.37055 7.24067 6.0527 7.12109 6.01031C7.00406 5.96531 6.89233 5.98124 6.80399 6.10839C6.67919 6.28585 6.55703 6.46601 6.45821 6.57455C6.38022 6.65932 6.25278 6.66993 6.14625 6.62486C6.00326 6.56401 5.60296 6.42086 5.10898 5.97324C4.7268 5.62631 4.46686 5.19461 4.39151 5.06484C4.31609 4.93246 4.38374 4.85554 4.44346 4.78407C4.50846 4.70192 4.57083 4.64369 4.63583 4.56684C4.70083 4.49007 4.73722 4.4503 4.77882 4.36023C4.82306 4.27284 4.79181 4.18276 4.76063 4.11653C4.72945 4.0503 4.4695 3.40399 4.3629 3.14183Z" fill="#FEFEFE"/>
<defs>
<linearGradient id="paint0_linear_618_10857" x1="-32.064" y1="-14.2424" x2="-32.064" y2="-13.9118" gradientUnits="userSpaceOnUse">
<stop stop-color="#6EBF61"/>
<stop offset="0.231" stop-color="#50A557"/>
<stop offset="0.522" stop-color="#2A904F"/>
<stop offset="0.812" stop-color="#50A557"/>
<stop offset="1" stop-color="#6EBF63"/>
</linearGradient>
</defs>
</svg>
