<svg width="21" height="21" viewBox="0 0 21 21" fill="none" xmlns="http://www.w3.org/2000/svg">
<g clip-path="url(#clip0_195_15771)">
<path d="M18.375 5.91237L16.625 7.66237V3.5H8.75002V7.875H4.37502V17.5H16.625V15.0876L18.375 13.3376V18.382C18.3748 18.6123 18.2831 18.8331 18.1202 18.9958C17.9573 19.1586 17.7364 19.25 17.5061 19.25H3.4939C3.37899 19.2492 3.26536 19.2258 3.15951 19.1811C3.05366 19.1363 2.95765 19.0712 2.87697 18.9894C2.79628 18.9076 2.73251 18.8107 2.68928 18.7042C2.64605 18.5977 2.62421 18.4838 2.62502 18.3689V7L7.87765 1.75H17.4983C17.9813 1.75 18.375 2.14813 18.375 2.618V5.91237ZM19.0558 7.70613L20.293 8.94425L13.4873 15.75L12.2483 15.7482L12.25 14.5128L19.0558 7.707V7.70613Z" fill="#617D97"/>
</g>
<defs>
<clipPath id="clip0_195_15771">
<rect width="21" height="21" fill="white"/>
</clipPath>
</defs>
</svg>
