<svg width="18" height="18" viewBox="0 0 18 18" fill="none" xmlns="http://www.w3.org/2000/svg">
<path d="M9.08989 16.0309C7.73739 16.0309 6.47517 15.6025 5.42072 14.8736L2.85689 15.7342L3.68797 13.1312C2.88831 11.9779 2.418 10.5569 2.418 9.02473C2.418 5.16131 5.40899 2.0187 9.08601 2.0187C12.763 2.0187 15.754 5.16131 15.754 9.02473C15.754 12.888 12.763 16.0308 9.08601 16.0308H9.08989V16.0309ZM9.08989 0.692383C4.711 0.692383 1.15954 4.42422 1.15954 9.02485C1.15954 10.5982 1.57508 12.0727 2.29631 13.3289L0.865479 17.7979L5.25609 16.3193C6.42964 17.0011 7.74888 17.3582 9.08989 17.3572C13.4687 17.3572 17.0202 13.6256 17.0202 9.02485C17.0201 4.42422 13.4687 0.692383 9.08989 0.692383Z" fill="#FEFEFE"/>
<path d="M9.08769 2.01855C5.41066 2.01855 2.41968 5.16116 2.41968 9.02458C2.41968 10.5568 2.89009 11.9777 3.68975 13.1311L2.85867 15.7341L5.42239 14.8734C6.47684 15.6066 7.73519 16.0307 9.09156 16.0307C12.7686 16.0307 15.7596 12.888 15.7596 9.0247C15.7596 5.16127 12.7686 2.01867 9.09156 2.01867H9.08769V2.01855Z" fill="url(#paint0_linear_515_9753)"/>
<path d="M7.22699 5.57782C7.09766 5.25246 6.99964 5.24014 6.80371 5.23177C6.72931 5.22673 6.65478 5.22402 6.58023 5.22363C6.32533 5.22363 6.05881 5.30186 5.89806 5.47483C5.70213 5.68488 5.216 6.17496 5.216 7.17999C5.216 8.18502 5.91377 9.15703 6.00781 9.29303C6.10583 9.42881 7.36816 11.5212 9.32815 12.3739C10.8609 13.0411 11.3157 12.9793 11.6645 12.9011C12.1741 12.7858 12.8131 12.3902 12.9739 11.9125C13.1346 11.4347 13.1346 11.0269 13.0875 10.9404C13.0405 10.8539 12.911 10.8046 12.7151 10.7015C12.5192 10.5985 11.5665 10.1043 11.3862 10.0384C11.2097 9.9684 11.0412 9.99316 10.908 10.1909C10.7198 10.4668 10.5356 10.747 10.3866 10.9158C10.269 11.0476 10.0768 11.0641 9.91617 10.994C9.70054 10.8994 9.09693 10.6768 8.35203 9.98072C7.77574 9.44124 7.38376 8.76995 7.27014 8.56815C7.15641 8.36228 7.25841 8.24267 7.34847 8.13154C7.44649 8.00379 7.54053 7.91324 7.63855 7.79374C7.73657 7.67436 7.79145 7.61252 7.85418 7.47245C7.92089 7.33656 7.87376 7.19649 7.82674 7.0935C7.77972 6.99051 7.38774 5.98548 7.22699 5.57782Z" fill="#FEFEFE"/>
<defs>
<linearGradient id="paint0_linear_515_9753" x1="-47.7023" y1="-21.4545" x2="-47.7023" y2="-20.9404" gradientUnits="userSpaceOnUse">
<stop stop-color="#6EBF61"/>
<stop offset="0.231" stop-color="#50A557"/>
<stop offset="0.522" stop-color="#2A904F"/>
<stop offset="0.812" stop-color="#50A557"/>
<stop offset="1" stop-color="#6EBF63"/>
</linearGradient>
</defs>
</svg>
